<?xml version="1.0" encoding="UTF-8"?>
<svg id="Layer_1" data-name="Layer 1" xmlns="http://www.w3.org/2000/svg" viewBox="0 0 323.43 222.08">
  <defs>
    <style>
      .cls-1 {
        fill: #0f61a1;
      }

      .cls-2 {
        fill: #010101;
      }

      .cls-3 {
        fill: #fff;
      }
    </style>
  </defs>
  <g>
    <path class="cls-3" d="M129.06,59.31h10.09l13.52,33h.53l13.52-33h10.09v45.54h-7.92v-31.29h-.42l-12.59,31.15h-5.91l-12.58-31.22h-.42v31.35h-7.92v-45.54Z"/>
    <path class="cls-3" d="M189.5,65.85c-1.27,0-2.37-.43-3.29-1.29-.92-.86-1.38-1.89-1.38-3.09s.46-2.23,1.38-3.08c.92-.85,2.02-1.28,3.29-1.28s2.39.43,3.3,1.29,1.37,1.89,1.37,3.09-.46,2.23-1.37,3.08-2.01,1.28-3.3,1.28ZM185.45,104.85v-34.15h8.05v34.15h-8.05Z"/>
    <path class="cls-3" d="M209.82,59.31v45.54h-8.05v-45.54h8.05Z"/>
    <path class="cls-3" d="M218.09,104.85v-45.54h8.05v45.54h-8.05ZM225.43,94.13l-.02-9.72h1.29l12.28-13.72h9.4l-15.1,16.81h-1.67l-6.18,6.63ZM239.53,104.85l-11.12-15.54,5.43-5.67,15.32,21.21h-9.63Z"/>
    <path class="cls-3" d="M258.72,117.65c-1.1,0-2.11-.08-3.04-.26-.93-.17-1.66-.37-2.21-.59l1.87-6.27c1.17.34,2.22.5,3.14.49.92-.02,1.73-.3,2.43-.86.7-.56,1.3-1.48,1.79-2.77l.69-1.84-12.39-34.86h8.54l7.87,25.79h.36l7.89-25.79h8.56l-13.67,38.29c-.64,1.81-1.48,3.36-2.54,4.66-1.05,1.3-2.34,2.29-3.86,2.98-1.52.69-3.33,1.03-5.44,1.03Z"/>
    <path class="cls-3" d="M129.06,123.71h10.09l13.52,33h.53l13.52-33h10.09v45.54h-7.92v-31.29h-.42l-12.59,31.15h-5.91l-12.58-31.22h-.42v31.35h-7.92v-45.54Z"/>
    <path class="cls-3" d="M189.5,130.25c-1.27,0-2.37-.43-3.29-1.29-.92-.86-1.38-1.89-1.38-3.09s.46-2.23,1.38-3.08c.92-.85,2.02-1.28,3.29-1.28s2.39.43,3.3,1.29,1.37,1.89,1.37,3.09-.46,2.23-1.37,3.08-2.01,1.28-3.3,1.28ZM185.45,169.25v-34.15h8.05v34.15h-8.05Z"/>
    <path class="cls-3" d="M209.82,149.24v20.01h-8.05v-34.15h7.69v5.8h.4c.79-1.91,2.04-3.43,3.77-4.56,1.73-1.13,3.87-1.69,6.42-1.69,2.36,0,4.41.5,6.17,1.51,1.76,1.01,3.12,2.47,4.09,4.38.97,1.91,1.45,4.23,1.43,6.96v21.75h-8.05v-20.5c0-2.28-.59-4.07-1.77-5.36-1.18-1.29-2.81-1.93-4.88-1.93-1.41,0-2.66.31-3.75.92-1.09.62-1.94,1.5-2.56,2.66-.62,1.16-.92,2.56-.92,4.2Z"/>
    <path class="cls-3" d="M252.62,169.85c-2.68,0-5.08-.69-7.2-2.07-2.12-1.38-3.79-3.38-5.03-6-1.23-2.62-1.84-5.81-1.84-9.56s.63-7,1.88-9.62c1.25-2.62,2.95-4.6,5.08-5.94,2.13-1.34,4.51-2.01,7.14-2.01,2,0,3.65.34,4.94,1.01,1.29.67,2.31,1.48,3.07,2.42.76.94,1.34,1.83,1.76,2.66h.33v-17.03h8.07v45.54h-7.92v-5.38h-.49c-.42.83-1.02,1.71-1.8,2.64-.79.93-1.82,1.72-3.11,2.37-1.29.65-2.91.98-4.87.98ZM254.87,163.24c1.71,0,3.16-.46,4.36-1.39,1.2-.93,2.11-2.22,2.74-3.88.62-1.66.93-3.59.93-5.8s-.31-4.13-.92-5.76c-.61-1.63-1.52-2.9-2.71-3.8-1.19-.9-2.66-1.36-4.39-1.36s-3.29.47-4.49,1.4c-1.2.93-2.1,2.22-2.71,3.87-.61,1.65-.91,3.53-.91,5.65s.31,4.04.92,5.7c.61,1.67,1.53,2.98,2.73,3.94s2.69,1.43,4.46,1.43Z"/>
    <path class="cls-3" d="M306.41,144.12l-7.34.8c-.21-.74-.57-1.44-1.08-2.09-.51-.65-1.2-1.18-2.06-1.58-.86-.4-1.91-.6-3.16-.6-1.67,0-3.08.36-4.21,1.09-1.13.73-1.69,1.67-1.68,2.82-.02.99.35,1.8,1.1,2.42s1.99,1.13,3.72,1.53l5.83,1.25c3.23.7,5.64,1.8,7.22,3.31,1.58,1.51,2.38,3.49,2.39,5.94-.02,2.15-.64,4.04-1.88,5.68-1.24,1.64-2.95,2.92-5.15,3.84-2.19.92-4.71,1.38-7.56,1.38-4.18,0-7.55-.88-10.09-2.63s-4.07-4.21-4.56-7.35l7.85-.76c.36,1.54,1.11,2.71,2.27,3.49,1.16.79,2.66,1.18,4.51,1.18s3.45-.39,4.61-1.18c1.16-.79,1.75-1.76,1.75-2.91,0-.98-.38-1.79-1.12-2.42-.75-.64-1.91-1.13-3.48-1.47l-5.83-1.22c-3.28-.68-5.7-1.83-7.27-3.46-1.57-1.62-2.35-3.68-2.33-6.17-.02-2.1.56-3.93,1.72-5.48,1.16-1.55,2.79-2.75,4.87-3.6,2.08-.85,4.49-1.28,7.22-1.28,4,0,7.16.85,9.46,2.56,2.3,1.71,3.73,4.01,4.28,6.92Z"/>
  </g>
  <path class="cls-3" d="M89.9,148.58c1.64-1.58,2.66-3.79,2.66-6.24v-.26c0-9.54,3.55-18.56,9.99-25.38,8.64-9.15,13.48-21.13,13.62-33.72.15-13.33-5-25.97-14.48-35.57-9.48-9.6-22.04-14.9-35.36-14.93-.03,0-.06,0-.09,0-13.32,0-25.85,5.18-35.28,14.59-9.45,9.44-14.66,21.99-14.66,35.34s4.77,24.8,13.43,34.08c6.56,7.03,10.18,16.1,10.18,25.56v.28c0,2.45,1.02,4.66,2.66,6.24h0c1.62,1.56,3.78,2.43,6.03,2.43h35.16c2.29,0,4.49-.87,6.15-2.43h0Z"/>
  <path class="cls-3" d="M30.03,111.71c.32-1.62.71-3.33-.1-4.91-.67-1.31-1.98-2.13-3.17-2.91-1.51-.98-3.41-2.34-3.07-4.4.16-.95.87-1.76,1.9-1.71,1.03.05,1.91.91,2.43,1.74.88,1.42,1.04,3.2,2.12,4.52.78.96,1.91,1.48,3.08,1.79,2.46.66,5.89.39,7.43,2.82.38.59.63,1.28,1.22,1.7.51.37,1.12.43,1.74.42.86-.01,1.81-.23,2.6.22.59.34.91.95,1.13,1.56.66,1.83.66,4.99,3.19,5.27,1.65.19,2.97-.99,4.24-1.85.81-.55,1.69-1.02,2.7-.95,1.08.07,2.06.67,2.84,1.39,1.21,1.12,3.26,4.35,3.27,4.35.04.05.08.1.12.15.08.09.16.18.24.27l.1.1s.03.04.04.06c1,1.09,2.19,2,3.49,2.71,2.85,1.55,6.16,2.11,9.36,1.62,3.29-.51,6.38-2.13,8.8-4.39,1.17-1.09,2.56-3.57,4.38-3.45.79.05,1.45.64,2.24.77.79.13,1.58-.05,2.3-.39,3.18-1.49,4.68-5.31,6.3-8.18,1.5-2.68,4.08-6.41,7.6-6.09,3.28-6.45,5.07-13.61,5.15-20.99.14-12.67-4.75-24.67-13.76-33.8-9.01-9.13-20.95-14.17-33.61-14.19-.03,0-.06,0-.09,0-12.66,0-24.57,4.92-33.53,13.87-8.98,8.97-13.93,20.9-13.93,33.59,0,11.32,3.99,22.13,11.27,30.7-.09-.41-.11-.88,0-1.42Z"/>
  <path class="cls-2" d="M103.2,112.18c-.21.22-.4.45-.57.69.19-.23.38-.46.57-.69Z"/>
  <rect class="cls-3" x="45.8" y="150.61" width="41.1" height="5.78" rx="1.39" ry="1.39"/>
  <path class="cls-3" d="M82.81,158.32h-32.9c-.62,0-1.13.5-1.13,1.13v3.52c0,.62.5,1.13,1.13,1.13h1.95c-.04.11-.06.23-.06.35v3.52c0,.62.5,1.13,1.13,1.13h3.14l2.19,2.43c.89.98,2.15,1.54,3.47,1.54h9.08c1.32,0,2.59-.56,3.47-1.54l2.19-2.43h3.39c.62,0,1.13-.5,1.13-1.13v-3.52c0-.12-.02-.24-.06-.35h1.88c.62,0,1.13-.5,1.13-1.13v-3.52c0-.62-.5-1.13-1.13-1.13Z"/>
  <path class="cls-1" d="M100.94,110.04c-1.61,2.87-3.11,6.69-6.3,8.18-.72.34-1.51.52-2.3.39-.79-.13-1.45-.71-2.24-.77-1.82-.12-3.21,2.36-4.38,3.45-2.42,2.26-5.51,3.88-8.8,4.39-3.2.49-6.51-.07-9.36-1.62-.41-.22-1.35-.81-2.49-1.54-4.19-3.7-6.98-8.69-6.72-14.55.03-.61.09-1.23.3-1.8.28-.75.8-1.39,1.29-2.02,1.03-1.32,2-2.73,2.44-4.35.44-1.61.29-3.47-.77-4.77-1.88-2.32-5.68-1.86-8.13-.14-1.62,1.14-2.97,2.82-3.27,4.78-.37,2.44.9,4.78,1.77,7.09.84,2.22,1.34,4.56,1.48,6.93.04.68.04,1.41-.32,1.99-.32.51-.62,1.08-1.03,1.53-.99,1.08-1.86.9-2.68.82-1.72-.81-1.52-3.84-2.1-5.45-.22-.61-.54-1.23-1.13-1.56-.79-.45-1.74-.24-2.6-.22-.62,0-1.23-.06-1.74-.42-.59-.42-.84-1.11-1.22-1.7-1.54-2.43-4.97-2.16-7.43-2.82-1.17-.31-2.3-.83-3.08-1.79-1.08-1.33-1.23-3.1-2.12-4.52-.51-.83-1.4-1.69-2.43-1.74-1.03-.05-1.74.76-1.9,1.71-.34,2.06,1.56,3.42,3.07,4.4,1.19.78,2.5,1.6,3.17,2.91.8,1.58.41,3.29.1,4.91-.11.54-.09,1,0,1.42.49.57.99,1.13,1.5,1.68,6.99,7.49,10.84,17.16,10.84,27.25v.28c0,3.41,2.78,6.19,6.19,6.19h35.33c3.41,0,6.19-2.78,6.19-6.19v-.26c0-10.18,3.79-19.8,10.67-27.08.65-.69,1.28-1.4,1.89-2.13.17-.24.37-.48.57-.69,2.07-2.57,3.85-5.33,5.33-8.23-3.52-.32-6.1,3.41-7.6,6.09Z"/>
  <path class="cls-1" d="M88.49,57.99l1.62,4.37c.06.17.19.3.36.36l4.37,1.62-4.37,1.62c-.17.06-.3.19-.36.36l-1.62,4.37-1.62-4.37c-.06-.17-.19-.3-.36-.36l-4.37-1.62,4.37-1.62c.17-.06.3-.19.36-.36l1.62-4.37Z"/>
  <path class="cls-1" d="M42.43,60.74l.88,2.37c.06.17.19.3.36.36l2.37.88-2.37.88c-.17.06-.3.19-.36.36l-.88,2.37-.88-2.37c-.06-.17-.19-.3-.36-.36l-2.37-.88,2.37-.88c.17-.06.3-.19.36-.36l.88-2.37Z"/>
  <circle class="cls-1" cx="77" cy="86.22" r="2.57"/>
  <circle class="cls-1" cx="30.7" cy="86.22" r="2.57"/>
  <circle class="cls-1" cx="64.66" cy="74.39" r="1.44"/>
  <circle class="cls-1" cx="95.71" cy="91.23" r="1.56"/>
</svg>